<svg id="Calque_1" data-name="Calque 1" xmlns="http://www.w3.org/2000/svg" viewBox="0 0 870.3 682.8">
  <defs>
    <style>
      .cls-1 {
        fill: #de203c;
      }

      .cls-2, .cls-3 {
        fill: none;
      }

      .cls-2 {
        stroke: #1d1d1b;
        stroke-width: 23px;
      }

      .cls-3 {
        stroke: #47c8c0;
        stroke-width: 20px;
      }
    </style>
  </defs>
  <g>
    <g>
      <path class="cls-1" d="M212,253.8H90.4l-4-87.4H212Zm0,429.7H86.4l4-87.4H212ZM212,465H122.1V384.9H212Zm28,131.1q50.3-1.5,50.3-32.8V508.7c0-22.1-16.8-36-50.3-41.9V383.1c33.5-5.9,50.3-19.8,50.3-41.9V286.6q0-32.9-43-32.8H240V166.4h18.2q131.9,0,131.9,112.9v61.9q0,68.1-61.9,83.7,61.8,15.8,61.9,83.8v61.9q0,112.9-131.9,112.9H240Z" transform="translate(-74.3 -154.9)"/>
      <path class="cls-1" d="M582.7,253.8q-47.2,0-47.3,32.8V388.5q0,28.5,47.3,28.8v82.3a284.8,284.8,0,0,1-29.1,1.8q-113,0-118-112.9V279.3q0-113,131.8-112.9h15.3Zm0,429.7H472l-3.6-87.4H582.7Zm27.3-87c36.9-2.5,55.4-25.6,55.4-69.6V485.8A530.1,530.1,0,0,1,610,498.5V416.9q22.9-2.1,55.4-8.3v-122q0-32.9-55.4-32.8V166.4h23.3q131.9,0,131.9,112.9V534.2q0,149.3-155.2,149.3Z" transform="translate(-74.3 -154.9)"/>
      <path class="cls-1" d="M932.7,625.2a56.1,56.1,0,0,1-17.1,41.2c-11.5,11.4-25.4,17.1-41.9,17.1s-30.5-5.7-41.9-17.1a56.1,56.1,0,0,1-17.1-41.2q0-24,17.1-41.1c11.4-11.4,25.4-17.1,41.9-17.1s30.4,5.7,41.9,17.1S932.7,609.2,932.7,625.2ZM836.5,523.3,822,166.4H932.7L918.1,523.3Z" transform="translate(-74.3 -154.9)"/>
    </g>
    <g>
      <path class="cls-2" d="M212,253.8H90.4l-4-87.4H212Zm0,429.7H86.4l4-87.4H212ZM212,465H122.1V384.9H212Zm28,131.1q50.3-1.5,50.3-32.8V508.7c0-22.1-16.8-36-50.3-41.9V383.1c33.5-5.9,50.3-19.8,50.3-41.9V286.6q0-32.9-43-32.8H240V166.4h18.2q131.9,0,131.9,112.9v61.9q0,68.1-61.9,83.7,61.8,15.8,61.9,83.8v61.9q0,112.9-131.9,112.9H240Z" transform="translate(-74.3 -154.9)"/>
      <path class="cls-2" d="M582.7,253.8q-47.2,0-47.3,32.8V388.5q0,28.5,47.3,28.8v82.3a284.8,284.8,0,0,1-29.1,1.8q-113,0-118-112.9V279.3q0-113,131.8-112.9h15.3Zm0,429.7H472l-3.6-87.4H582.7Zm27.3-87c36.9-2.5,55.4-25.6,55.4-69.6V485.8A530.1,530.1,0,0,1,610,498.5V416.9q22.9-2.1,55.4-8.3v-122q0-32.9-55.4-32.8V166.4h23.3q131.9,0,131.9,112.9V534.2q0,149.3-155.2,149.3Z" transform="translate(-74.3 -154.9)"/>
      <path class="cls-2" d="M932.7,625.2a56.1,56.1,0,0,1-17.1,41.2c-11.5,11.4-25.4,17.1-41.9,17.1s-30.5-5.7-41.9-17.1a56.1,56.1,0,0,1-17.1-41.2q0-24,17.1-41.1c11.4-11.4,25.4-17.1,41.9-17.1s30.4,5.7,41.9,17.1S932.7,609.2,932.7,625.2ZM836.5,523.3,822,166.4H932.7L918.1,523.3Z" transform="translate(-74.3 -154.9)"/>
    </g>
    <g>
      <path class="cls-3" d="M212,253.8H90.4l-4-87.4H212Zm0,429.7H86.4l4-87.4H212ZM212,465H122.1V384.9H212Zm28,131.1q50.3-1.5,50.3-32.8V508.7c0-22.1-16.8-36-50.3-41.9V383.1c33.5-5.9,50.3-19.8,50.3-41.9V286.6q0-32.9-43-32.8H240V166.4h18.2q131.9,0,131.9,112.9v61.9q0,68.1-61.9,83.7,61.8,15.8,61.9,83.8v61.9q0,112.9-131.9,112.9H240Z" transform="translate(-74.3 -154.9)"/>
      <path class="cls-3" d="M582.7,253.8q-47.2,0-47.3,32.8V388.5q0,28.5,47.3,28.8v82.3a284.8,284.8,0,0,1-29.1,1.8q-113,0-118-112.9V279.3q0-113,131.8-112.9h15.3Zm0,429.7H472l-3.6-87.4H582.7Zm27.3-87c36.9-2.5,55.4-25.6,55.4-69.6V485.8A530.1,530.1,0,0,1,610,498.5V416.9q22.9-2.1,55.4-8.3v-122q0-32.9-55.4-32.8V166.4h23.3q131.9,0,131.9,112.9V534.2q0,149.3-155.2,149.3Z" transform="translate(-74.3 -154.9)"/>
      <path class="cls-3" d="M932.7,625.2a56.1,56.1,0,0,1-17.1,41.2c-11.5,11.4-25.4,17.1-41.9,17.1s-30.5-5.7-41.9-17.1a56.1,56.1,0,0,1-17.1-41.2q0-24,17.1-41.1c11.4-11.4,25.4-17.1,41.9-17.1s30.4,5.7,41.9,17.1S932.7,609.2,932.7,625.2ZM836.5,523.3,822,166.4H932.7L918.1,523.3Z" transform="translate(-74.3 -154.9)"/>
    </g>
  </g>
  <g>
    <rect class="cls-1" x="12" y="583.9" width="846.3" height="87.4"/>
    <rect class="cls-2" x="12" y="583.9" width="846.3" height="87.4"/>
    <rect class="cls-3" x="12" y="583.9" width="846.3" height="87.4"/>
  </g>
</svg>
