<svg xmlns="http://www.w3.org/2000/svg" viewBox="0 0 1480.9 593.7">
  <defs>
    <style>
      .cls-1, .cls-2, .cls-3, .cls-4 {
        fill: none;
        stroke: #9e813b;
      }

      .cls-1, .cls-2, .cls-3 {
        stroke-miterlimit: 10;
      }

      .cls-1, .cls-2, .cls-4 {
        stroke-width: 5px;
      }

      .cls-2, .cls-4 {
        stroke-linecap: round;
      }

      .cls-4 {
        stroke-linejoin: round;
      }
    </style>
  </defs>
  <g id="Calque_1" data-name="Calque 1">
    <g>
      <polygon class="cls-1" points="737.5 165.9 597.4 267.8 650.9 432.5 824.2 432.5 877.7 267.8 737.5 165.9"/>
      <polygon class="cls-1" points="778.2 179.7 691.1 179.7 620.6 230.9 593.7 313.8 620.6 396.6 691.1 447.9 778.2 447.9 848.7 396.6 875.6 313.8 848.7 230.9 778.2 179.7"/>
      <polygon class="cls-1" points="731.6 216 663.3 246.8 636.9 316.9 667.7 385.1 737.8 411.5 806 380.7 832.4 310.7 801.6 242.5 731.6 216"/>
      <polygon class="cls-1" points="775.6 337.4 775.6 290.2 734.7 266.5 693.7 290.2 693.7 337.4 734.7 361 775.6 337.4"/>
      <g>
        <path class="cls-2" d="M496.8,524.4c-26.3,13.2-34.4,27-29.1,48.4a32,32,0,0,0,38.7,23.3,25.6,25.6,0,0,0,18.6-31,20.4,20.4,0,0,0-24.7-14.9A16.3,16.3,0,0,0,488.4,570a13.1,13.1,0,0,0,15.8,9.6,10.5,10.5,0,0,0,7.6-12.7,8.3,8.3,0,0,0-10.1-6.1,6.7,6.7,0,0,0-4.9,8.1,5.3,5.3,0,0,0,6.5,3.9" transform="translate(238.5 -257.9)"/>
        <rect class="cls-1" x="420.2" y="496.4" width="151" height="150.96" transform="translate(6 520.3) rotate(-64.9)"/>
      </g>
    </g>
  </g>
  <g id="Calque_2" data-name="Calque 2">
    <g>
      <polygon class="cls-3" points="277.1 6.5 221.9 86.6 185.6 139.4 178.8 100.9 206.9 73.9 277.1 6.5"/>
      <polygon class="cls-4" points="277.1 6.5 221.9 86.6 185.6 139.4 178.8 100.9 206.9 73.9 277.1 6.5"/>
      <polygon class="cls-3" points="203.1 210.5 129.8 204 119.1 325.3 203.1 210.5"/>
      <polygon class="cls-4" points="203.1 210.5 129.8 204 119.1 325.3 203.1 210.5"/>
      <polygon class="cls-3" points="209 144 282.3 150.5 293 29.1 209 144"/>
      <polygon class="cls-4" points="209 144 282.3 150.5 293 29.1 209 144"/>
      <polygon class="cls-4" points="129.8 203.9 203.1 210.4 209 144 129.8 203.9"/>
      <polygon class="cls-3" points="282.3 150.5 209 144.1 203.1 210.5 282.3 150.5"/>
      <polygon class="cls-4" points="282.3 150.5 209 144.1 203.1 210.5 282.3 150.5"/>
      <polygon class="cls-4" points="153 185 78.5 164.6 2.5 143.7 81.3 142.5 100.1 142.2 152.8 184.9 152.8 184.8 153 185"/>
      <polygon class="cls-4" points="154.7 184.2 154.6 185.2 154.5 185.4 154.3 185.4 153.4 185.1 154.7 184.2"/>
      <polygon class="cls-4" points="188.8 157.8 188 157.8 186.4 156.2 181.7 145.1 167.4 111.8 156.7 86.8 153.1 78.5 161.5 2.5 175.1 80.1 178.8 100.9 185.6 139.4 188.8 157.8"/>
      <polygon class="cls-4" points="186.4 156.2 179.1 148.9 154.4 124.3 148.7 118.6 136.9 106.8 135.2 92.5 125.7 14.3 153.1 78.5 156.7 86.8 167.4 111.8 181.7 145.1 186.4 156.2"/>
      <polygon class="cls-4" points="152.8 184.8 152.8 184.9 100.1 142.2 82.9 128.2 13 71.5 94.7 109.3 117 119.7 129.2 141.7 144.5 169.7 145.1 170.7 152.8 184.8"/>
      <polygon class="cls-3" points="153.4 185.1 153.1 185.3 153 185 153.4 185.1"/>
      <polygon class="cls-4" points="188.7 158.6 170.9 171.9 154.7 184.2 153.4 185.1 153 185 152.8 184.8 145.1 170.7 144.5 169.7 129.2 141.7 117 119.7 115.1 116.3 77.2 47.2 132.9 102.9 136.9 106.8 148.7 118.6 154.4 124.3 179.1 148.9 186.4 156.2 188 157.8 188.7 158.6"/>
      <polygon class="cls-4" points="153.4 185.1 153.1 185.3 153 185 153.4 185.1"/>
    </g>
  </g>
  <g id="Calque_3" data-name="Calque 3">
    <g>
      <polygon class="cls-1" points="1092.1 168.4 997.5 168.4 950.3 250.3 997.5 332.1 1092.1 332.1 1139.3 250.3 1092.1 168.4"/>
      <g>
        <path class="cls-1" d="M806.6,526.7s8.9,49.7,55.2,27.2,15.1,89.7-55.2,99.4" transform="translate(238.5 -257.9)"/>
        <path class="cls-1" d="M806.6,526.7s-8.9,49.7-55.2,27.2-15.1,89.7,55.2,99.4" transform="translate(238.5 -257.9)"/>
        <path class="cls-1" d="M806.6,489.6s-8.9-49.7-55.2-27.2-15.1-89.7,55.2-99.4" transform="translate(238.5 -257.9)"/>
        <path class="cls-1" d="M806.6,489.6s8.9-49.7,55.2-27.2,15.1-89.7-55.2-99.4" transform="translate(238.5 -257.9)"/>
        <path class="cls-1" d="M820.1,503.5s38.6-32.6-4-61.4,70.1-57.9,113.6-1.9" transform="translate(238.5 -257.9)"/>
        <path class="cls-1" d="M820.1,503.5s47.5-17.1,51.1,34.2,85.3-31.8,58.5-97.5" transform="translate(238.5 -257.9)"/>
        <path class="cls-1" d="M819.8,516.2s47.5,17.1,51.1-34.2,85.3,31.8,58.6,97.5" transform="translate(238.5 -257.9)"/>
        <path class="cls-1" d="M819.8,516.2s38.6,32.6-4,61.4,70.1,58,113.7,1.9" transform="translate(238.5 -257.9)"/>
        <path class="cls-1" d="M792.5,517.6s-38.6,32.6,4.1,61.3-70.2,58-113.7,2" transform="translate(238.5 -257.9)"/>
        <path class="cls-1" d="M792.5,517.6s-47.5,17.1-51.1-34.2-85.3,31.8-58.5,97.5" transform="translate(238.5 -257.9)"/>
        <path class="cls-1" d="M792.8,504.9s-47.5-17.2-51.1,34.1-85.3-31.7-58.5-97.4" transform="translate(238.5 -257.9)"/>
        <path class="cls-1" d="M792.8,504.9s-38.6-32.6,4-61.4-70.1-58-113.6-1.9" transform="translate(238.5 -257.9)"/>
      </g>
    </g>
  </g>
  <g id="Calque_4" data-name="Calque 4">
    <g>
      <path class="cls-1" d="M273.7,408.2a89.6,89.6,0,0,1,1,12.8,86.2,86.2,0,0,1-172.3,0,84.5,84.5,0,0,1,1.1-13.4" transform="translate(238.5 -257.9)"/>
      <path class="cls-1" d="M273.6,408.2a86.1,86.1,0,0,1-170.2-.3" transform="translate(238.5 -257.9)"/>
      <path class="cls-1" d="M69.4,619.4A77.5,77.5,0,0,1,68,604.9c0-54,54-97.8,120.5-97.8S309,550.9,309,604.9a84.2,84.2,0,0,1-1.4,15.2" transform="translate(238.5 -257.9)"/>
      <path class="cls-1" d="M69.5,619.4c9-46.7,58.9-82.5,119-82.5s110.3,35.9,119.1,82.9" transform="translate(238.5 -257.9)"/>
      <path class="cls-1" d="M241.3,423.2c0,31.9-52.6,57.7-52.6,57.7s-52.6-25.8-52.6-57.7,23.6-57.8,52.6-57.8S241.3,391.3,241.3,423.2Z" transform="translate(238.5 -257.9)"/>
      <path class="cls-1" d="M126.3,585.7c0-27,62.4-48.8,62.4-48.8s62.5,21.8,62.5,48.8-28,48.9-62.5,48.9S126.3,612.7,126.3,585.7Z" transform="translate(238.5 -257.9)"/>
      <path class="cls-1" d="M210.9,442.8c0,21-22.2,38.1-22.2,38.1s-22.1-17.1-22.1-38.1,9.9-38.2,22.1-38.2S210.9,421.7,210.9,442.8Z" transform="translate(238.5 -257.9)"/>
      <polyline class="cls-1" points="431.7 280.9 431.7 280.9 427 370.2 422.3 280.9 422.4 280.9"/>
    </g>
    <path class="cls-1" d="M-113.6,667.1a5.1,5.1,0,0,1,2.6-1c4,.6,6,3.1,5,5.5-2,5.6-14,6.8-21,5-10-2.5-14-9.9-13-16.1,3-9.2,16-15.4,31-16,30-1.3,48,19.7,39.7,36.5-1.5,4.7.6,5.6,2.8,6.4C21.1,722.1,225.7,789,500,789" transform="translate(238.5 -257.9)"/>
    <path class="cls-1" d="M1113.3,667.1a5.1,5.1,0,0,0-2.6-1c-4,.6-6,3.1-5,5.5,2,5.6,14,6.8,21,5,10-2.5,14-9.9,13-16.1-3-9.2-16-15.4-31-16-30-1.3-48,19.7-39.6,36.5,1.4,4.7-.6,5.6-2.8,6.4C978.6,722.1,774,789,499.7,789" transform="translate(238.5 -257.9)"/>
  </g>
  <g id="Calque_5" data-name="Calque 5">
    <g>
      <path class="cls-4" d="M1144.3,447.1a36.6,36.6,0,1,1-28.6-43.2A36.6,36.6,0,0,1,1144.3,447.1Z" transform="translate(238.5 -257.9)"/>
      <polyline class="cls-4" points="1343.1 25.5 1315.6 36 1287.4 103.2 1314.3 165.4"/>
      <polyline class="cls-4" points="1378.8 163.9 1402.6 100.5 1371.3 34.7 1343.3 25.5"/>
      <polyline class="cls-4" points="1339.9 146.3 1373.2 87.3 1443.7 69.1 1468.7 84.6"/>
      <polyline class="cls-4" points="1380.1 196.8 1445 177.3 1478.4 112.6 1468.8 84.7"/>
      <polyline class="cls-4" points="1351.7 145.6 1315.5 88.2 1244.2 73.4 1220 90.1"/>
      <polyline class="cls-4" points="1313.9 197.9 1248.1 181.6 1211.6 118.5 1219.9 90.3"/>
      <polyline class="cls-4" points="1339.8 217.3 1373.2 276.3 1443.7 294.5 1468.8 278.9"/>
      <polyline class="cls-4" points="1380.1 166.8 1445 186.2 1478.4 250.9 1468.9 278.8"/>
      <polyline class="cls-4" points="1355.8 217 1325.3 277.5 1255.8 299 1230 284.7"/>
      <polyline class="cls-4" points="1313.2 168.4 1249.3 190.9 1219 257.1 1229.9 284.5"/>
      <path class="cls-4" d="M1043.7,380.3a5.3,5.3,0,0,1-5.3,5.4,5.4,5.4,0,0,1,0-10.7A5.3,5.3,0,0,1,1043.7,380.3Z" transform="translate(238.5 -257.9)"/>
      <path class="cls-4" d="M1075.1,424.8s-44.5-20-40-40.3" transform="translate(238.5 -257.9)"/>
      <path class="cls-4" d="M1172.6,378.9a5.4,5.4,0,0,0,10.7,0,5.4,5.4,0,0,0-10.7,0Z" transform="translate(238.5 -257.9)"/>
      <path class="cls-4" d="M1141.3,423.4s44.4-20.1,40-40.3" transform="translate(238.5 -257.9)"/>
      <path class="cls-4" d="M1044,499.7a5.4,5.4,0,1,0-5.3,5.4A5.3,5.3,0,0,0,1044,499.7Z" transform="translate(238.5 -257.9)"/>
      <path class="cls-4" d="M1075.3,455.2s-44.4,20.1-40,40.3" transform="translate(238.5 -257.9)"/>
      <path class="cls-4" d="M1173.5,499.2a5.4,5.4,0,1,1,5.4,5.3A5.4,5.4,0,0,1,1173.5,499.2Z" transform="translate(238.5 -257.9)"/>
      <path class="cls-4" d="M1142.2,454.7s44.4,20,40,40.3" transform="translate(238.5 -257.9)"/>
    </g>
  </g>
  <g id="Calque_6" data-name="Calque 6">
    <g>
      <circle class="cls-1" cx="500" cy="789" r="30.1" transform="translate(-55.7 1022.9) rotate(-89.4)"/>
      <circle class="cls-1" cx="500" cy="758.9" r="30.1" transform="translate(-25.6 993.1) rotate(-89.4)"/>
      <circle class="cls-1" cx="500" cy="819.1" r="30.1" transform="translate(-81.8 1059.1) rotate(-89.9)"/>
      <circle class="cls-1" cx="526.1" cy="804" r="30.1" transform="translate(-43.6 1065.9) rotate(-89.6)"/>
      <circle class="cls-1" cx="526.1" cy="774" r="30.1" transform="translate(-14.9 1034.1) rotate(-89.4)"/>
      <circle class="cls-1" cx="474" cy="774" r="30.1" transform="translate(-66.4 982) rotate(-89.4)"/>
      <circle class="cls-1" cx="474" cy="804" r="30.1" transform="translate(-95.3 1013.8) rotate(-89.6)"/>
    </g>
  </g>
</svg>
