<svg xmlns="http://www.w3.org/2000/svg" xmlns:xlink="http://www.w3.org/1999/xlink" viewBox="0 0 788.6 648.95"><defs><style>.cls-1,.cls-2,.cls-21{fill:none;stroke-miterlimit:10;}.cls-1,.cls-21{stroke:#fff;}.cls-1{stroke-width:10px;}.cls-2{stroke:#1d1d1b;stroke-width:7px;}.cls-3{fill:url(#Dégradé_sans_nom_79);}.cls-4{fill:url(#Dégradé_sans_nom_79-2);}.cls-5{fill:url(#Dégradé_sans_nom_79-3);}.cls-6{fill:url(#Dégradé_sans_nom_79-4);}.cls-7{fill:url(#Dégradé_sans_nom_79-5);}.cls-8{fill:url(#Dégradé_sans_nom_79-6);}.cls-9{fill:url(#Dégradé_sans_nom_79-7);}.cls-10{fill:url(#Dégradé_sans_nom_79-8);}.cls-11{fill-rule:evenodd;fill:url(#Dégradé_sans_nom_79-9);}.cls-12{fill:url(#Dégradé_sans_nom_79-10);}.cls-13{fill:url(#Dégradé_sans_nom_79-11);}.cls-14{fill:url(#Dégradé_sans_nom_79-12);}.cls-15{fill:url(#Dégradé_sans_nom_79-13);}.cls-16{fill:url(#Dégradé_sans_nom_79-14);}.cls-17{fill:url(#Dégradé_sans_nom_79-15);}.cls-18{fill:url(#Dégradé_sans_nom_79-16);}.cls-19{fill:url(#Dégradé_sans_nom_79-17);}.cls-20{fill:#1d1d1b;}.cls-21{stroke-width:3px;}</style><linearGradient id="Dégradé_sans_nom_79" x1="588.21" y1="767.94" x2="304.21" y2="270.61" gradientUnits="userSpaceOnUse"><stop offset="0" stop-color="#fff"/><stop offset="0.01" stop-color="#fbf8f1"/><stop offset="0.06" stop-color="#eee3c7"/><stop offset="0.1" stop-color="#e4d1a5"/><stop offset="0.15" stop-color="#dbc38a"/><stop offset="0.19" stop-color="#d6ba77"/><stop offset="0.24" stop-color="#d2b46c"/><stop offset="0.29" stop-color="#d1b268"/><stop offset="0.67" stop-color="#9e813a"/><stop offset="0.9" stop-color="#645124"/><stop offset="1" stop-color="#1d1d1b"/></linearGradient><linearGradient id="Dégradé_sans_nom_79-2" x1="596.51" y1="763.2" x2="312.51" y2="265.87" xlink:href="#Dégradé_sans_nom_79"/><linearGradient id="Dégradé_sans_nom_79-3" x1="588.19" y1="767.95" x2="304.19" y2="270.62" xlink:href="#Dégradé_sans_nom_79"/><linearGradient id="Dégradé_sans_nom_79-4" x1="608.38" y1="756.42" x2="324.38" y2="259.09" xlink:href="#Dégradé_sans_nom_79"/><linearGradient id="Dégradé_sans_nom_79-5" x1="592.76" y1="765.34" x2="308.76" y2="268.01" xlink:href="#Dégradé_sans_nom_79"/><linearGradient id="Dégradé_sans_nom_79-6" x1="578.15" y1="773.69" x2="294.15" y2="276.35" xlink:href="#Dégradé_sans_nom_79"/><linearGradient id="Dégradé_sans_nom_79-7" x1="583.93" y1="770.39" x2="299.93" y2="273.05" xlink:href="#Dégradé_sans_nom_79"/><linearGradient id="Dégradé_sans_nom_79-8" x1="631.65" y1="743.13" x2="347.65" y2="245.8" xlink:href="#Dégradé_sans_nom_79"/><linearGradient id="Dégradé_sans_nom_79-9" x1="763.02" y1="668.12" x2="479.02" y2="170.78" xlink:href="#Dégradé_sans_nom_79"/><linearGradient id="Dégradé_sans_nom_79-10" x1="598.19" y1="762.24" x2="314.19" y2="264.91" xlink:href="#Dégradé_sans_nom_79"/><linearGradient id="Dégradé_sans_nom_79-11" x1="585.29" y1="769.61" x2="301.29" y2="272.28" xlink:href="#Dégradé_sans_nom_79"/><linearGradient id="Dégradé_sans_nom_79-12" x1="442.24" y1="851.3" x2="158.24" y2="353.97" xlink:href="#Dégradé_sans_nom_79"/><linearGradient id="Dégradé_sans_nom_79-13" x1="682.65" y1="714.01" x2="398.65" y2="216.68" xlink:href="#Dégradé_sans_nom_79"/><linearGradient id="Dégradé_sans_nom_79-14" x1="669.36" y1="721.6" x2="385.36" y2="224.27" xlink:href="#Dégradé_sans_nom_79"/><linearGradient id="Dégradé_sans_nom_79-15" x1="753.29" y1="673.67" x2="469.29" y2="176.34" xlink:href="#Dégradé_sans_nom_79"/><linearGradient id="Dégradé_sans_nom_79-16" x1="717.44" y1="694.14" x2="433.44" y2="196.81" xlink:href="#Dégradé_sans_nom_79"/><linearGradient id="Dégradé_sans_nom_79-17" x1="793.07" y1="650.96" x2="509.07" y2="153.63" xlink:href="#Dégradé_sans_nom_79"/></defs><g id="Couleur"><line class="cls-1" x1="47.73" y1="479.48" x2="788.6" y2="479.48"/><line class="cls-2" x1="47.73" y1="479.48" x2="788.6" y2="479.48"/></g><g id="Dessin"><path class="cls-3" d="M439.07,637.72s-3.05,27.53,2,43.77,13.72,25,13.72,25A92.53,92.53,0,0,1,443.15,685c-2.72-7.38-4.44-15.77-2.92-23.66,0,0,4.53,13.5-2.13,21.69,0,0,5.78-5.71,4.53-17.77s1.81-17.37,1.81-17.37-3.6,19.27.3,28.68,6.64,12.07,6.64,12.07-7.28-10.36-7.07-17.25S448,653.29,448,653.29s-2.57,11.83-1.62,15.88,1.46,19.43-6,20.74c0,0,7.94-1.53,8.36-15.4s1.36-15,1.36-15,4.65,25.64-3.13,38-12,10.63-12,10.63,15.49,2.06,19-31.08c0,0-.67,15.66,2.78,22.12s6.31,7.43,6.31,7.43-8.5-8.25-7.08-16.13,2.53-10,2.53-10,.59,16-1.59,23.12-7,18.41,3,26.75c0,0-9.59-7.85-2.82-23s4.56-25.81,4.56-25.81,0,24.86,3.68,30.65,11.52,7.92,11.52,7.92-13-4.63-12.3-15,3.91-25.63.06-30.55c0,0,5.53,11.56,2.52,21.88s-19.67,23.92-17.72,32.85-1.71,12.1-1.71,12.1a10,10,0,0,0,3.66-9c-.44-6.2-2.55-7.93,6.36-16.71s20.87-24.3,15.5-36.64c0,0,4.32,53.66,31.95,64.67,0,0-18.2-8.52-21.93-35s-2.8-27.83-2.8-27.83-3.31,39.15,27.82,63.74c0,0-23.86-20.75-22.74-45.66,0,0,3.15,21.79,21.71,41.8s25.65,22,25.65,22-30.88-25.9-30-63.5c0,0,2.68,30.09,24.78,55.52s28.44,20,28.44,20,8.48,6.22,11.19,3.28c0,0,6.2,8,12.64,7.32,0,0-22.17-9.16-32.67-36.13s-12-29.39-12-29.39,12.3,28.23,19,37.68,11.43,19.51,28.13,28c0,0-16.54-8.27-25.54-26.09s-8.22-20.83-8.22-20.83,10.19,35,35.74,47.71c0,0-19.09-8.25-31.4-47,0,0,14,39.15,35.24,47.72,0,0,3.09,1.41,4.94.24a21.51,21.51,0,0,0,9.3,3c5.42.43,11.25.83,11.25.83s-22.7-2.73-35.8-27.86c0,0,25.9,31.66,53.07,27.38,0,0-14.39-.73-19.62-8.12a45.14,45.14,0,0,0,24,7.46s-14.14-2-25.59-11-32-34.68-32-34.68,24.09,30.16,39.57,37.21,26.52,6.87,26.52,6.87a49.78,49.78,0,0,1-29-13.18c-13.36-12.48-14.43-16.08-14.43-16.08S622.66,790.82,655,786.7c0,0-30.9-5.26-42-18.67S602,751.27,602,751.27s13.38,25.79,38.28,29.76,27,0,27,0-22.74,5.28-40-13.53-14.08-15.07-14.08-15.07S636.62,779,658.9,778.9s23.56-8.1,23.56-8.1-7.45,7.67-20.6,4.73-36.41-20.44-36.41-20.44,32.54,20.79,44.14,19.08S686,765.1,686,765.1s-11.9,13.87-34,.26c0,0,21.57,10,35.08-3,0,0-12.28,8.77-30.42.67,0,0,23.06,5.79,33.8-7,0,0-9,7.78-23.53,5.12,0,0,15.05.86,25.39-8.43a58.39,58.39,0,0,1-32.14,1.84s19-2.73,32.67-3.23A55.93,55.93,0,0,0,676.68,750c-9.2.54-10.19,1.43-10.19,1.43s13.32-5.72,24.92-3.9c0,0-11.19-2.55-21.27-1,0,0,6.46-5.49,18.17-4.08l.53.07s-16.54-5.08-32.1-1.15-17.48,6.83-17.48,6.83,16.86-12.11,36.67-10.61c0,0-10.82-2.35-21-.23a158,158,0,0,0-18.2,4.92s21.75-16.33,53.34-6.86c0,0-17.22-7.25-31.49-6.46s-38.45,13.53-38.45,13.53,28.06-21.64,64.82-15.79c0,0-21-7.3-43,.91,0,0,23.44-13.83,42.42-9.78,0,0-8.88-5.78-22.68-5S614,723.7,603.4,738.77c0,0,32.77-40.15,73.66-29.24,0,0-17.92-8.53-37.36-6S587.91,724,587.91,724s37-27.31,71.37-25.8c0,0,10.51.39,16.23,3.53,0,0-2-8.74-17-12.23s-37,.43-52.35,3.18-36.72,10.86-36.72,10.86,65.91-27,93.53-16c0,0-10.49-12.2-26.82-14.12s-62.72-2.27-87.37,16.82c0,0,24.4-21,61.48-21,0,0,19.74.13,30,2.72,0,0-21-9.14-37.9-10.55s-57.32,10-57.32,10,34.73-14.31,54.25-12c0,0-11.18-4.39-22.09-4.86s-32.49,4.76-45.55,10.19c0,0,26.28-11.65,37.13-13s16.64.35,16.64.35-31.07-10-47.21-6.63-42.15,19-52.83,18.37c0,0,25.94-4.59,33.53-23.91S523,608,523,608s4,32.34-17.63,45.1c0,0-11.6,6.33-20.68,4.79,0,0,19-18.35,40.09-17.77S552,625.8,552,625.8s-9.8,16.05-27.44,12.45-42.29,12.25-42.6,17.08c0,0,7.61-15.24,22.26-18.34,0,0-14.47,1.09-24,7.62s-12.43,3.21-12.43,3.21A40.56,40.56,0,0,0,485.58,640c8.72-6.68,23.13-14.91,31.5-13.4s18.4-5.63,18.4-5.63-10.06,5.19-16.41,4.28-16-3.79-26.44,6.12S466.42,643.28,460,641.84c0,0,24.69-3.58,33.81-26.27,0,0-8.78,21.67-35.73,24.78,0,0,28.28-10.05,38.78-28.67,0,0-13.11,19.48-37.21,25.44a28.17,28.17,0,0,0,21.16-21.74s-5.12,15.32-21.15,18.89c0,0,6.84-1.68,11.13-12s13.75-17.86,20.66-14.22c0,0-9.69-4.72-19.19,8s-25.86,15.13-25.86,15.13S437.9,631.45,439.07,637.72Z" transform="translate(-106.41 -142.31)"/><path class="cls-4" d="M585.17,738.79s1.32,8,11,16.79c0,0-13.89-9.39-19.26-19.59Z" transform="translate(-106.41 -142.31)"/><path class="cls-5" d="M568.22,732.68s.32,11.07,15,26.92,20.34,18.17,20.34,18.17-35.72-17.66-45.72-48.3Z" transform="translate(-106.41 -142.31)"/><path class="cls-6" d="M591.72,737.61a23.17,23.17,0,0,0,14.72-8.78s-11.56,7.15-24.64,5.24Z" transform="translate(-106.41 -142.31)"/><path class="cls-7" d="M551.93,722.36s11.32,1.9,29.16-11.78c0,0-20.57,12.34-33.25,10.45Z" transform="translate(-106.41 -142.31)"/><path class="cls-8" d="M515.59,703.69s14.27-2.14,21-10.36a99,99,0,0,1,15.89-14.87s-13.68,10.41-18.57,13.27-26.78,7.9-26.78,7.9Z" transform="translate(-106.41 -142.31)"/><path class="cls-9" d="M648.25,750.24s-152.34-15-220.93-141.47c0,0-15.48-11.12-14.82-6.11S507.76,745.65,648.25,750.24Z" transform="translate(-106.41 -142.31)"/><path class="cls-10" d="M454.64,201s-21.36-25.81-88.07,56.09-9.86,236.69-9.86,236.69S312.7,289.56,454.64,201Z" transform="translate(-106.41 -142.31)"/><path class="cls-11" d="M653.89,226C635,210.08,652,218,647.45,202.26c-16.22-52.93-87.31-16.54-87.61-28.5s21.81-27.83,27.8-28.86-21.49-6.9-40.59,3.46-43.36,30.26-16.2,51.63c-23.31,4.44-25.77-11.23-58,3.43-17,7.71-7,17.38-32.08,30.7s0,34.62-22.37,54.87-18.41,5.16.93,40.34c27.6,29.51,17.7-10.85,39.63-42,23.82-50.72,42.5-29.35,56.6-36.58,49.05-21.82,155.11,62.54,165,159.06C709.86,344.07,667.45,234,653.89,226Zm-107.15,130c.83-.77,4.74-3.71,2.31-2.91-.13-.62-2.21-.23-3.56-.06C530.52,329.88,518,334.5,518,334.5c-11.27,2.73-3.42,31.5,12.18,39.72,5.31.26,8.24,2.1,16.93.52,2.54-1.75,4.86,1.06,7,2.23C550.94,372.88,545.91,356.69,546.74,355.93Zm-35.41-87.37c.86-5.27-6.46-19.7-16.08-10.23-11.18-1.32-22.86,28.21-7.82,39.08,19.49-.48,22.77-23.32,22.77-23.32s4.18-4.13,5-7.66S513.33,268.79,511.33,268.56Z" transform="translate(-106.41 -142.31)"/><path class="cls-12" d="M387.47,568.72s-138.13-231.09,5.72-378.55c-48,.73-51,39.05-74.55,35.63-15.86-21.35-31.72-123.21-34.09-63.43C247.8,498,386.53,567.07,387.47,568.72Z" transform="translate(-106.41 -142.31)"/><path class="cls-13" d="M421.13,581.93c-40-23.37-72.86-65.52-60.14-138.33s80.71-170.35,45.69-58S428.49,586.24,421.13,581.93Z" transform="translate(-106.41 -142.31)"/><path class="cls-14" d="M264.88,447c-39.27-126.79,12.91,53.79,107.8,116.74,55.92,54.43-95.65-92.54-160.21,25.14,20-80.08-3.85-77-67.34-119.64C31.47,389.29,197.66,482.72,264.88,447Z" transform="translate(-106.41 -142.31)"/><path class="cls-15" d="M416.42,556.25s-10-275.6,139.21-269.3-14.08-3.18-64.15,58.56S416.42,556.25,416.42,556.25Z" transform="translate(-106.41 -142.31)"/><path class="cls-16" d="M437.78,413.82c9.88-17.74,28.06-32.54,60.08-27.63s75.41,33.82,25.85,19.5S436,417.08,437.78,413.82Z" transform="translate(-106.41 -142.31)"/><path class="cls-17" d="M536.8,306.12c-38-4.42,15.68,2.87,43.33-14.81,20.86-8.4-35.54,14.43-12,45.16-18.78-14.61-20.74-8-39.38,3.81C494.41,360.93,538.39,328,536.8,306.12Z" transform="translate(-106.41 -142.31)"/><path class="cls-18" d="M602.26,385.58s5.84,13.4-39.19,23.21S469,366,469,366,539.81,423.36,602.26,385.58Z" transform="translate(-106.41 -142.31)"/><path class="cls-19" d="M537.29,305.19s70.23,61.72,129.64,21.87c-3.27,16.34-16.54,15-16.86,23.21,6.3,6.76,40.09,18.59,19.52,15.64C552.65,357.34,537.79,305.61,537.29,305.19Z" transform="translate(-106.41 -142.31)"/></g><g id="Texte"><path class="cls-20" d="M178,457.67q-.31-8.16-6.28-8.48v-4.7h28.56v4.39q-6.27.63-6.27,8.79l.07,132q11.85-.78,18.45-53.52h4.08v63.41H171.4v-4.4c4.18-.41,6.38-2.93,6.59-7.53Z" transform="translate(-106.41 -142.31)"/><path class="cls-20" d="M248.61,599.55v-2.2q3.76-3.76,2.51-27h-7.84q-1.89,23.22,2.19,27v2.2h-20.4v-2.2a7.05,7.05,0,0,0,4.24-2q1.73-1.72,10.51-150.51h16.33Q267.76,593.59,269,595.31a5.19,5.19,0,0,0,3.76,2v2.2Zm-4.86-42.69h6.12L246.73,506Z" transform="translate(-106.41 -142.31)"/><path class="cls-20" d="M279.37,544.93l16.95-8.79q-3.13,49,1.73,51.48t5.49-2.51a127.91,127.91,0,0,0,0-38q-.93-9.74-3.76-13.81Q282.2,506,279.69,492.51l-.32-31.07q3.47-16.32,18.84-16.33,17.27.31,18.2,22l.94,20.09-15.69,10q.31-18.84,0-35.16c0-5.23-1.2-7.89-3.61-8s-3.61,2.35-3.61,7.38l.31,31.39q16,25.73,21.66,39.55t4.08,39.54q-1.56,28.58-20.4,28.26-18.21-.95-20.72-25.19Z" transform="translate(-106.41 -142.31)"/><path class="cls-20" d="M330.22,443.86h43.95v55.56h-5.34q-1.56-33.59-8.79-39.87v128.7q0,7.53,6.91,9.41v2.2H337.76v-2.2q7.53-1.87,6.9-9.73V459.55q-7.85,6-10,39.87h-4.4Z" transform="translate(-106.41 -142.31)"/><path class="cls-20" d="M458.6,453.9c0-3.34-1.88-5-5.64-5V444.8h48v51.48h-4.39q-2.2-24.48-6.91-33.43t-14.12-9.26V507q8.47,2.82,8.78-23.54l4.4.31v64.35h-4.4q0-25.43-8.78-27.31v66.86q0,9.11,4.39,6.91l.31,4.7H453.9l-.32-4.7q5.34,1.88,5-6.6Z" transform="translate(-106.41 -142.31)"/><path class="cls-20" d="M513.22,458.3q0-9.42-5.65-8.48v-5h29.51q14.11,4.4,19.15,21.66v35.15q-.63,15.39-9.42,18.21v5.65q9.42,9.74,8.47,40.18t3.77,29.5v4.4H537.71v-48q.3-22.9-6.28-22.91V587q0,7.85,3.76,8.16v4.4l-25.73-.32v-4.7q3.45,0,3.76-7.85ZM539,498.48V470.85q-.94-11.3-7.53-10.67v49Q538.65,510.71,539,498.48Z" transform="translate(-106.41 -142.31)"/><path class="cls-20" d="M589.81,599.55v-2.2q3.77-3.76,2.51-27h-7.84q-1.89,23.22,2.19,27v2.2h-20.4v-2.2a7.08,7.08,0,0,0,4.24-2q1.72-1.72,10.51-150.51h16.32Q609,593.59,610.21,595.31a5.23,5.23,0,0,0,3.77,2v2.2ZM585,556.86h6.12L587.93,506Z" transform="translate(-106.41 -142.31)"/><path class="cls-20" d="M622.46,575.06V483.41q-1.89-39.87,18.83-39.55,20.09,0,19.46,39.23l-15.69,14.76q0-38.3-4.08-38.3t-3.46,23.86v81q-.63,25.11,3.46,25.11T647.25,577v-38.3q-1.56-4.08-6.59-4.39v-4.4h25.43v3.77a6.81,6.81,0,0,0-6.28,5.34v38.29q-1.57,22.92-19.15,25.11Q622.77,600.18,622.46,575.06Z" transform="translate(-106.41 -142.31)"/><path class="cls-20" d="M674.25,455.47c.63-3.76-1-6.07-5-6.9v-4.08H684l8.16,65,7.85-65h19.14v4.08q-4.08.93-3.76,13.18V589.5q.63,4.71,5,5.34v4.39h-21v-4.39q4.39-.32,4.39-5.34V501l-10.67,64.34L681.47,501v87.89q-.32,6.27,5.65,6.59v3.76H668.91l.32-3.45q5.32-.63,5-7.22Z" transform="translate(-106.41 -142.31)"/><path class="cls-20" d="M733,453.9c0-3.34-1.89-5.65-5.66-6.9v-2.2h48v51.48h-4.39q-2.2-24.48-6.91-33.43t-14.13-9.26V507q8.48,2.82,9.42-23.23h3.77v64.35h-4.4q0-25.43-8.79-27.31v70q7.54,0,13.66-9.89t7.38-35H775v53.36H728.24v-3.14q5,.31,4.71-8.16Z" transform="translate(-106.41 -142.31)"/><path class="cls-20" d="M787.56,455.47c.63-3.76-1-6.07-5-6.9v-4.08h22.29l12.24,87.57V454.22q0-4.71-3.77-5.34v-4.39h19.15v4.08q-4.08.93-3.77,13.18V599.23H813.93l-15.07-98.56v88.21q-.95,6.9,4.71,6.59v3.76H782.23l.31-3.45q5.34-.63,5-7.22Z" transform="translate(-106.41 -142.31)"/><path class="cls-20" d="M842.18,443.86h43.94v55.56h-5.33q-1.57-33.59-8.79-39.87v128.7q0,7.53,6.9,9.41v2.2H849.71v-2.2q7.53-1.87,6.91-9.73V459.55q-7.85,6-10,39.87h-4.39Z" transform="translate(-106.41 -142.31)"/><path class="cls-20" d="M178,457.67q-.31-8.16-6.28-8.48v-4.7h28.56v4.39q-6.27.63-6.27,8.79l.07,132q11.85-.78,18.45-53.52h4.08v63.41H171.4v-4.4c4.18-.41,6.38-2.93,6.59-7.53Z" transform="translate(-106.41 -142.31)"/><path class="cls-20" d="M248.61,599.55v-2.2q3.76-3.76,2.51-27h-7.84q-1.89,23.22,2.19,27v2.2h-20.4v-2.2a7.05,7.05,0,0,0,4.24-2q1.73-1.72,10.51-150.51h16.33Q267.76,593.59,269,595.31a5.19,5.19,0,0,0,3.76,2v2.2Zm-4.86-42.69h6.12L246.73,506Z" transform="translate(-106.41 -142.31)"/><path class="cls-20" d="M279.37,544.93l16.95-8.79q-3.13,49,1.73,51.48t5.49-2.51a127.91,127.91,0,0,0,0-38q-.93-9.74-3.76-13.81Q282.2,506,279.69,492.51l-.32-31.07q3.47-16.32,18.84-16.33,17.27.31,18.2,22l.94,20.09-15.69,10q.31-18.84,0-35.16c0-5.23-1.2-7.89-3.61-8s-3.61,2.35-3.61,7.38l.31,31.39q16,25.73,21.66,39.55t4.08,39.54q-1.56,28.58-20.4,28.26-18.21-.95-20.72-25.19Z" transform="translate(-106.41 -142.31)"/><path class="cls-20" d="M330.22,443.86h43.95v55.56h-5.34q-1.56-33.59-8.79-39.87v128.7q0,7.53,6.91,9.41v2.2H337.76v-2.2q7.53-1.87,6.9-9.73V459.55q-7.85,6-10,39.87h-4.4Z" transform="translate(-106.41 -142.31)"/><path class="cls-20" d="M458.6,453.9c0-3.34-1.88-5-5.64-5V444.8h48v51.48h-4.39q-2.2-24.48-6.91-33.43t-14.12-9.26V507q8.47,2.82,8.78-23.54l4.4.31v64.35h-4.4q0-25.43-8.78-27.31v66.86q0,9.11,4.39,6.91l.31,4.7H453.9l-.32-4.7q5.34,1.88,5-6.6Z" transform="translate(-106.41 -142.31)"/><path class="cls-20" d="M513.22,458.3q0-9.42-5.65-8.48v-5h29.51q14.11,4.4,19.15,21.66v35.15q-.63,15.39-9.42,18.21v5.65q9.42,9.74,8.47,40.18t3.77,29.5v4.4H537.71v-48q.3-22.9-6.28-22.91V587q0,7.85,3.76,8.16v4.4l-25.73-.32v-4.7q3.45,0,3.76-7.85ZM539,498.48V470.85q-.94-11.3-7.53-10.67v49Q538.65,510.71,539,498.48Z" transform="translate(-106.41 -142.31)"/><path class="cls-20" d="M589.81,599.55v-2.2q3.77-3.76,2.51-27h-7.84q-1.89,23.22,2.19,27v2.2h-20.4v-2.2a7.08,7.08,0,0,0,4.24-2q1.72-1.72,10.51-150.51h16.32Q609,593.59,610.21,595.31a5.23,5.23,0,0,0,3.77,2v2.2ZM585,556.86h6.12L587.93,506Z" transform="translate(-106.41 -142.31)"/><path class="cls-20" d="M622.46,575.06V483.41q-1.89-39.87,18.83-39.55,20.09,0,19.46,39.23l-15.69,14.76q0-38.3-4.08-38.3t-3.46,23.86v81q-.63,25.11,3.46,25.11T647.25,577v-38.3q-1.56-4.08-6.59-4.39v-4.4h25.43v3.77a6.81,6.81,0,0,0-6.28,5.34v38.29q-1.57,22.92-19.15,25.11Q622.77,600.18,622.46,575.06Z" transform="translate(-106.41 -142.31)"/><path class="cls-20" d="M674.25,455.47c.63-3.76-1-6.07-5-6.9v-4.08H684l8.16,65,7.85-65h19.14v4.08q-4.08.93-3.76,13.18V589.5q.63,4.71,5,5.34v4.39h-21v-4.39q4.39-.32,4.39-5.34V501l-10.67,64.34L681.47,501v87.89q-.32,6.27,5.65,6.59v3.76H668.91l.32-3.45q5.32-.63,5-7.22Z" transform="translate(-106.41 -142.31)"/><path class="cls-20" d="M733,453.9c0-3.34-1.89-5.65-5.66-6.9v-2.2h48v51.48h-4.39q-2.2-24.48-6.91-33.43t-14.13-9.26V507q8.48,2.82,9.42-23.23h3.77v64.35h-4.4q0-25.43-8.79-27.31v70q7.54,0,13.66-9.89t7.38-35H775v53.36H728.24v-3.14q5,.31,4.71-8.16Z" transform="translate(-106.41 -142.31)"/><path class="cls-20" d="M787.56,455.47c.63-3.76-1-6.07-5-6.9v-4.08h22.29l12.24,87.57V454.22q0-4.71-3.77-5.34v-4.39h19.15v4.08q-4.08.93-3.77,13.18V599.23H813.93l-15.07-98.56v88.21q-.95,6.9,4.71,6.59v3.76H782.23l.31-3.45q5.34-.63,5-7.22Z" transform="translate(-106.41 -142.31)"/><path class="cls-20" d="M842.18,443.86h43.94v55.56h-5.33q-1.57-33.59-8.79-39.87v128.7q0,7.53,6.9,9.41v2.2H849.71v-2.2q7.53-1.87,6.91-9.73V459.55q-7.85,6-10,39.87h-4.39Z" transform="translate(-106.41 -142.31)"/><path class="cls-21" d="M178,457.67q-.31-8.16-6.28-8.48v-4.7h28.56v4.39q-6.27.63-6.27,8.79l.07,132q11.85-.78,18.45-53.52h4.08v63.41H171.4v-4.4c4.18-.41,6.38-2.93,6.59-7.53Z" transform="translate(-106.41 -142.31)"/><path class="cls-21" d="M248.61,599.55v-2.2q3.76-3.76,2.51-27h-7.84q-1.89,23.22,2.19,27v2.2h-20.4v-2.2a7.05,7.05,0,0,0,4.24-2q1.73-1.72,10.51-150.51h16.33Q267.76,593.59,269,595.31a5.19,5.19,0,0,0,3.76,2v2.2Zm-4.86-42.69h6.12L246.73,506Z" transform="translate(-106.41 -142.31)"/><path class="cls-21" d="M279.37,544.93l16.95-8.79q-3.13,49,1.73,51.48t5.49-2.51a127.91,127.91,0,0,0,0-38q-.93-9.74-3.76-13.81Q282.2,506,279.69,492.51l-.32-31.07q3.47-16.32,18.84-16.33,17.27.31,18.2,22l.94,20.09-15.69,10q.31-18.84,0-35.16c0-5.23-1.2-7.89-3.61-8s-3.61,2.35-3.61,7.38l.31,31.39q16,25.73,21.66,39.55t4.08,39.54q-1.56,28.58-20.4,28.26-18.21-.95-20.72-25.19Z" transform="translate(-106.41 -142.31)"/><path class="cls-21" d="M330.22,443.86h43.95v55.56h-5.34q-1.56-33.59-8.79-39.87v128.7q0,7.53,6.91,9.41v2.2H337.76v-2.2q7.53-1.87,6.9-9.73V459.55q-7.85,6-10,39.87h-4.4Z" transform="translate(-106.41 -142.31)"/><path class="cls-21" d="M458.6,453.9c0-3.34-1.88-5-5.64-5V444.8h48v51.48h-4.39q-2.2-24.48-6.91-33.43t-14.12-9.26V507q8.47,2.82,8.78-23.54l4.4.31v64.35h-4.4q0-25.43-8.78-27.31v66.86q0,9.11,4.39,6.91l.31,4.7H453.9l-.32-4.7q5.34,1.88,5-6.6Z" transform="translate(-106.41 -142.31)"/><path class="cls-21" d="M513.22,458.3q0-9.42-5.65-8.48v-5h29.51q14.11,4.4,19.15,21.66v35.15q-.63,15.39-9.42,18.21v5.65q9.42,9.74,8.47,40.18t3.77,29.5v4.4H537.71v-48q.3-22.9-6.28-22.91V587q0,7.85,3.76,8.16v4.4l-25.73-.32v-4.7q3.45,0,3.76-7.85ZM539,498.48V470.85q-.94-11.3-7.53-10.67v49Q538.65,510.71,539,498.48Z" transform="translate(-106.41 -142.31)"/><path class="cls-21" d="M589.81,599.55v-2.2q3.77-3.76,2.51-27h-7.84q-1.89,23.22,2.19,27v2.2h-20.4v-2.2a7.08,7.08,0,0,0,4.24-2q1.72-1.72,10.51-150.51h16.32Q609,593.59,610.21,595.31a5.23,5.23,0,0,0,3.77,2v2.2ZM585,556.86h6.12L587.93,506Z" transform="translate(-106.41 -142.31)"/><path class="cls-21" d="M622.46,575.06V483.41q-1.89-39.87,18.83-39.55,20.09,0,19.46,39.23l-15.69,14.76q0-38.3-4.08-38.3t-3.46,23.86v81q-.63,25.11,3.46,25.11T647.25,577v-38.3q-1.56-4.08-6.59-4.39v-4.4h25.43v3.77a6.81,6.81,0,0,0-6.28,5.34v38.29q-1.57,22.92-19.15,25.11Q622.77,600.18,622.46,575.06Z" transform="translate(-106.41 -142.31)"/><path class="cls-21" d="M674.25,455.47c.63-3.76-1-6.07-5-6.9v-4.08H684l8.16,65,7.85-65h19.14v4.08q-4.08.93-3.76,13.18V589.5q.63,4.71,5,5.34v4.39h-21v-4.39q4.39-.32,4.39-5.34V501l-10.67,64.34L681.47,501v87.89q-.32,6.27,5.65,6.59v3.76H668.91l.32-3.45q5.32-.63,5-7.22Z" transform="translate(-106.41 -142.31)"/><path class="cls-21" d="M733,453.9c0-3.34-1.89-5.65-5.66-6.9v-2.2h48v51.48h-4.39q-2.2-24.48-6.91-33.43t-14.13-9.26V507q8.48,2.82,9.42-23.23h3.77v64.35h-4.4q0-25.43-8.79-27.31v70q7.54,0,13.66-9.89t7.38-35H775v53.36H728.24v-3.14q5,.31,4.71-8.16Z" transform="translate(-106.41 -142.31)"/><path class="cls-21" d="M787.56,455.47c.63-3.76-1-6.07-5-6.9v-4.08h22.29l12.24,87.57V454.22q0-4.71-3.77-5.34v-4.39h19.15v4.08q-4.08.93-3.77,13.18V599.23H813.93l-15.07-98.56v88.21q-.95,6.9,4.71,6.59v3.76H782.23l.31-3.45q5.34-.63,5-7.22Z" transform="translate(-106.41 -142.31)"/><path class="cls-21" d="M842.18,443.86h43.94v55.56h-5.33q-1.57-33.59-8.79-39.87v128.7q0,7.53,6.9,9.41v2.2H849.71v-2.2q7.53-1.87,6.91-9.73V459.55q-7.85,6-10,39.87h-4.39Z" transform="translate(-106.41 -142.31)"/></g></svg>